<?xml version="1.0" encoding="utf-8"?>
<!-- Generator: Adobe Illustrator 23.0.2, SVG Export Plug-In . SVG Version: 6.00 Build 0)  -->
<svg version="1.1" id="icons" xmlns="http://www.w3.org/2000/svg" xmlns:xlink="http://www.w3.org/1999/xlink" x="0px" y="0px"
	 viewBox="0 0 99.7 100" style="enable-background:new 0 0 99.7 100;" xml:space="preserve">
<style type="text/css">
	.st0{fill:none;}
</style>
<title>AirPods</title>
<g id="Airpods">
	<path class="LightOrDark" d="M52.7,58.4v34.3c0,0.9,0.8,1.7,1.7,1.7h3.4c0.9,0,2.3-0.7,2.3-1.7V63.4c1.2,0.2,2.5,0.3,3.7,0.3c2.7-0.1,5.3-1.3,7-3.4
		c0.3-0.3,0.4-0.7,0.4-1.1v-7.4c0-0.4-0.2-0.8-0.4-1.1c-2-2.1-4.7-3.4-7.6-3.4C57.8,47.2,52.7,54.6,52.7,58.4z"/>
	<path class="LightOrDark" d="M47.2,58.4v34.3c0,0.9-0.8,1.7-1.7,1.7h-3.3c-0.9,0-2.3-0.7-2.3-1.7V63.4c-1.2,0.2-2.5,0.3-3.7,0.3c-2.7-0.1-5.2-1.3-7-3.4
		c-0.3-0.3-0.4-0.7-0.4-1.1v-7.4c0-0.4,0.2-0.8,0.4-1.1c2-2.1,4.7-3.4,7.6-3.4C42.2,47.2,47.2,54.6,47.2,58.4z"/>
	<rect x="28.7" class="st0" width="42.6" height="100"/>
</g>
</svg>
