<?xml version="1.0" encoding="utf-8"?>
<!-- Generator: Adobe Illustrator 23.0.2, SVG Export Plug-In . SVG Version: 6.00 Build 0)  -->
<svg version="1.1" id="Layer_1" xmlns="http://www.w3.org/2000/svg" xmlns:xlink="http://www.w3.org/1999/xlink" x="0px" y="0px"
	 viewBox="0 0 99 99.9" style="enable-background:new 0 0 99 99.9;" xml:space="preserve">
<title>Apple Pencil</title>
<g>
	<path class="LightOrDark" d="M71,4.5L71,4.5c-1.3-0.6-2.8-0.1-3.5,1.1c0,0,0,0.1,0,0.1L31.1,83.8l0,0c-0.4,1-0.7,2-0.9,3c-0.3,1.2-0.9,3.7-0.9,3.7l0,0
		l-1,4.2c-0.1,0.3,0.1,0.6,0.4,0.6c0.2,0,0.4,0,0.5-0.2l2.6-3.4l0,0c0,0,1.5-2,2.3-3c0.6-0.8,1.2-1.7,1.7-2.7l0,0L72.2,7.9
		C72.8,6.6,72.3,5.1,71,4.5z"/>
</g>
</svg>
