<?xml version="1.0" encoding="utf-8"?>
<!-- Generator: Adobe Illustrator 23.0.2, SVG Export Plug-In . SVG Version: 6.00 Build 0)  -->
<svg version="1.1" id="Layer_1" xmlns="http://www.w3.org/2000/svg" xmlns:xlink="http://www.w3.org/1999/xlink" x="0px" y="0px"
	 viewBox="0 0 99.8 99.7" style="enable-background:new 0 0 99.8 99.7;" xml:space="preserve">
<title>Computers</title>
<g>
	<path class="LightOrDark" d="M59.7,96.8V67.6c0-1.4-0.7-2.1-2.1-2.1H7.7c-1.4,0-2.1,0.7-2.1,2.1v29.2h-5.7C0,97,0.1,97.3,0.2,97.3c0,0,2.9,1.8,6.6,2
		c3.7,0.3,7.3,0.4,7.3,0.4h18.5h18.5c0,0,3.4-0.1,7-0.4c3.7-0.2,6.6-2,6.6-2c0.1,0,0.5-0.3,0.6-0.5L59.7,96.8L59.7,96.8z M8.4,68.3
		h48.4v28.5H8.4V68.3z M75.3,99.7L75.3,99.7C75.3,99.7,75.4,99.7,75.3,99.7c0.3-0.1,0.4-0.3,0.4-0.5c0-0.3-0.2-0.5-0.5-0.5
		c0,0-0.1,0-0.1,0c-1.9,0.1-3.7-1.2-4.2-3.1l-1.3-5.9h27.7c1,0,2.2-1.2,2.2-2.2V44.9c0-1-1.2-2.2-2.2-2.2h-64c-1,0-2.2,1.2-2.2,2.2
		l0,19.2h2.8V45.5h62.7v35.6H61.1v8.5v5.7h5.7v1.4c-0.1,2.2-4.3,2.8-4.3,2.8H75.3z M66.8,86.6c0,0.1-0.1,0.2-0.1,0.2
		c0,0.1-0.1,0.1-0.1,0.2c0,0.1-0.1,0.1-0.1,0.1c-0.1,0-0.1,0.1-0.2,0.1c0,0-0.1,0-0.2,0c0,0-0.1,0-0.1,0c-0.1,0-0.1,0-0.2,0
		c-0.1,0-0.1,0-0.2-0.1c-0.1,0-0.1,0-0.1,0s-0.1,0-0.2,0c-0.1,0-0.1,0-0.2,0.1c-0.1,0-0.1,0-0.2,0.1c0,0-0.1,0-0.1,0
		c0,0-0.1,0-0.1,0s-0.1,0-0.1-0.1s-0.1-0.1-0.1-0.1c-0.1-0.1-0.1-0.1-0.2-0.2c-0.1-0.1-0.1-0.2-0.2-0.3c0-0.1-0.1-0.2-0.1-0.3
		c0-0.1-0.1-0.2-0.1-0.3c0-0.1,0-0.2,0-0.3c0-0.2,0-0.3,0.1-0.4c0-0.1,0.1-0.2,0.2-0.3c0.1-0.1,0.2-0.2,0.3-0.2s0.2-0.1,0.4-0.1
		c0.1,0,0.2,0,0.3,0.1c0.1,0.1,0.2,0.1,0.3,0.1c0,0,0,0,0.1,0s0.1,0,0.2-0.1s0.1,0,0.2-0.1s0.1,0,0.2,0c0.1,0,0.3,0,0.4,0.1
		s0.2,0.2,0.3,0.3c-0.1,0.1-0.2,0.2-0.3,0.3c-0.1,0.1-0.1,0.2-0.1,0.4s0,0.3,0.1,0.4c0.1,0.1,0.2,0.2,0.4,0.3
		C66.8,86.4,66.8,86.5,66.8,86.6z M65.4,84.4c0-0.1,0-0.2,0.1-0.3c0-0.1,0.1-0.2,0.2-0.2c0.1-0.1,0.1-0.1,0.2-0.2
		c0.1,0,0.2-0.1,0.3-0.1c0,0,0,0,0,0v0c0,0.1,0,0.2-0.1,0.3c0,0.1-0.1,0.2-0.2,0.2c-0.1,0.1-0.1,0.1-0.2,0.2
		C65.6,84.5,65.5,84.5,65.4,84.4C65.4,84.5,65.4,84.5,65.4,84.4C65.4,84.5,65.4,84.5,65.4,84.4z"/>
</g>
</svg>
