<?xml version="1.0" encoding="utf-8"?>
<!-- Generator: Adobe Illustrator 23.0.2, SVG Export Plug-In . SVG Version: 6.00 Build 0)  -->
<svg version="1.1" id="Layer_1" xmlns="http://www.w3.org/2000/svg" xmlns:xlink="http://www.w3.org/1999/xlink" x="0px" y="0px"
	 viewBox="0 0 99.6 100" style="enable-background:new 0 0 99.6 100;" xml:space="preserve">
<style type="text/css">
	.st0{fill:none;}
</style>
<title>HomePod</title>
<g>
	<g>
		<path class="LightOrDark" d="M63.4,34c0,0.7-5.9,1.3-13.2,1.3S37.1,34.7,37.1,34c0-0.7,5.9-1.3,13.2-1.3S63.4,33.4,63.4,34z M65.4,34.7
			c-0.3,0.8-2.2,2.1-15.1,2.1s-14.8-1.3-15.1-2.1c-6.1,1.1-10.7,5.7-10.7,12v33.2c0,6.4,4.7,11.7,10.8,12.7c0.4,0.8,2.8,2,15.1,2
			s14.6-1.2,15.1-2c6.1-1,10.8-6.4,10.8-12.7V46.7C76.1,40.4,71.4,35.8,65.4,34.7z"/>
		<rect x="24.4" class="st0" width="51.7" height="99.7"/>
	</g>
</g>
</svg>
