<?xml version="1.0" encoding="utf-8"?>
<!-- Generator: Adobe Illustrator 23.0.2, SVG Export Plug-In . SVG Version: 6.00 Build 0)  -->
<svg version="1.1" id="Layer_1" xmlns="http://www.w3.org/2000/svg" xmlns:xlink="http://www.w3.org/1999/xlink" x="0px" y="0px"
	 viewBox="0 0 99.7 99.9" style="enable-background:new 0 0 99.7 99.9;" xml:space="preserve">
<style type="text/css">
	.st0{fill-rule:evenodd;clip-rule:evenodd;}
</style>
<title>iPads</title>
<g>
	<path class="LightOrDark" d="M45,35.4H4.5c-1.4,0-2.6,1.2-2.6,2.6v59.3c0.1,1.4,1.2,2.5,2.6,2.5H45c1.4-0.1,2.6-1.2,2.6-2.6V38
		C47.6,36.5,46.4,35.4,45,35.4z M24.6,38c0.5,0,0.9,0.4,0.9,0.9c0,0.5-0.4,0.9-0.9,0.9c-0.5,0-0.9-0.4-0.9-0.9
		C23.7,38.4,24.1,38,24.6,38L24.6,38z M24.7,98.8c-1.1,0-2.1-0.9-2.1-2.1s0.9-2.1,2.1-2.1s2.1,0.9,2.1,2.1S25.9,98.8,24.7,98.8z
		 M43.4,93.6H6v-52h37.4V93.6z M72,16.6H19c-1.4,0-2.6,1.1-2.6,2.5c0,0,0,0,0,0.1v14h4.2V25h49.9v66.5H49.7v5.4
		c0,1.7-0.2,2.5-1.4,2.9H72c1.4,0,2.6-1.1,2.6-2.5c0,0,0,0,0-0.1v-78C74.6,17.8,73.5,16.7,72,16.6C72.1,16.6,72,16.6,72,16.6z
		 M45.5,21.8c-0.6,0-1-0.5-1-1c0-0.6,0.5-1,1-1s1,0.5,1,1C46.6,21.4,46.1,21.8,45.5,21.8z"/>
	<path class="LightOrDark" d="M75.4,99.8h19.2c1.5,0,2.8-1.2,2.8-2.7c0,0,0,0,0,0V3.2c0-1.6-1.2-3-2.8-3.1H29.5c-1.6,0.2-2.8,1.6-2.7,3.2
		v11.3H31V6.4c-0.1-1.1,0.8-2.1,2-2.2c0,0,0.1,0,0.1,0h58.2c1.1,0,2.1,0.9,2.1,2.1v87.3c0,1.1-0.9,2.1-2.1,2.1H76.7v1.8
		C76.8,98.4,76.3,99.3,75.4,99.8z"/>
</g>
</svg>
