<?xml version="1.0" encoding="utf-8"?>
<!-- Generator: Adobe Illustrator 23.0.2, SVG Export Plug-In . SVG Version: 6.00 Build 0)  -->
<svg version="1.1" id="icons" xmlns="http://www.w3.org/2000/svg" xmlns:xlink="http://www.w3.org/1999/xlink" x="0px" y="0px"
	 viewBox="0 0 99.7 99.9" style="enable-background:new 0 0 99.7 99.9;" xml:space="preserve">
<style type="text/css">
	.st0{fill:none;}
</style>
<title>iPhones</title>
<g>
	<g>
		<path class="LightOrDark" d="M91,24.2H70.3v7.4h24.1v55.7H70.3v1.9c0,2.1-0.9,4.2-2.6,5.6H91c3-0.1,5.3-2.6,5.3-5.6V29.5C96.3,26.6,93.9,24.2,91,24.2z
			 M81.5,28.8h-5.6v-0.9h5.6V28.8z M78.7,93.7c-1.5,0-2.8-1.2-2.8-2.8s1.2-2.8,2.8-2.8s2.8,1.2,2.8,2.8S80.2,93.7,78.7,93.7z"/>
		<path class="LightOrDark" d="M43.7,94.7h19.2c3.1,0,5.6-2.5,5.6-5.6V24.2c0-3.1-2.5-5.6-5.6-5.6H46.2v5.6h11.1c0.9,0.1,1.8-0.6,1.9-1.5
			c0-0.1,0-1.4,0-1.5c0-0.5,0.5-0.6,0.8-0.7h3.3c1.8,0,3.3,1.5,3.3,3.3v65.7c0,1.8-1.5,3.3-3.3,3.3H45.4
			C44.9,93.5,44.4,94.1,43.7,94.7z M53.6,21.4c0,0.3-0.2,0.5-0.5,0.5h-4.6c-0.3,0-0.5-0.2-0.5-0.5c0-0.3,0.2-0.5,0.5-0.5h4.6
			C53.4,20.9,53.6,21.1,53.6,21.4z"/>
		<path class="LightOrDark" d="M38.2,9.3H9.7c-3.4,0-6.2,2.8-6.2,6.2v73c0,3.4,2.8,6.2,6.2,6.2h28.4c3.4,0,6.2-2.8,6.2-6.2v-73
			C44.4,12.1,41.6,9.3,38.2,9.3z M28.6,11.4c0.4,0,0.7,0.3,0.7,0.7s-0.3,0.7-0.7,0.7c-0.4,0-0.7-0.3-0.7-0.7c0,0,0,0,0,0
			C27.9,11.7,28.2,11.4,28.6,11.4C28.6,11.4,28.6,11.4,28.6,11.4z M20.7,12c0-0.2,0.2-0.4,0.4-0.4l0,0h5.7c0.2,0,0.4,0.2,0.4,0.4
			l0,0v0.1c0,0.2-0.2,0.4-0.4,0.4l0,0h-5.7c-0.2,0-0.4-0.2-0.4-0.4l0,0V12z M42.5,89.1c0,2-1.7,3.7-3.7,3.7H9.1
			c-2,0-3.7-1.7-3.7-3.7V14.9c0-2,1.7-3.7,3.7-3.7h2.8c0.3,0,0.9,0.3,0.9,0.8c0,0,0,1.1,0,1.2c0.1,1,0.9,1.8,2,1.7
			c0.1,0,0.1,0,0.2,0h18c1,0.1,2-0.6,2.1-1.6c0-0.1,0-0.1,0-0.2c0-0.1,0-1.2,0-1.2c0-0.5,0.6-0.7,0.9-0.7h2.8c2,0,3.7,1.7,3.7,3.7
			V89.1z"/>
	</g>
	<rect x="3.5" y="0" class="st0" width="92.8" height="100.2"/>
</g>
</svg>
