<?xml version="1.0" encoding="utf-8"?>
<!-- Generator: Adobe Illustrator 23.0.2, SVG Export Plug-In . SVG Version: 6.00 Build 0)  -->
<svg version="1.1" id="Light" xmlns="http://www.w3.org/2000/svg" xmlns:xlink="http://www.w3.org/1999/xlink" x="0px" y="0px"
	 viewBox="0 0 99.7 99.9" style="enable-background:new 0 0 99.7 99.9;" xml:space="preserve">
<title>Apple Watch</title>
<path class="LightOrDark" d="M71.7,46.1v-9.5h-1.9v-3.2c0-1.4-0.4-2.9-1.1-4.1c-0.8-1.3-2.1-2.4-2.9-3.7c-1.1-1.7-2-3.7-2.5-5.7
	c-0.5-2.2-0.4-4.5-0.8-6.7c-0.3-1.5-1.6-2.6-3.2-2.7c-1.8-0.2-3.6-0.4-5.3-0.5c-1.8-0.1-3.7-0.2-5.6-0.2c-3.6-0.1-7.1,0.2-10.6,0.8
	c-1.1,0.3-1.9,1.1-2.1,2.2c-0.2,1-0.4,3.5-0.6,5c-0.2,3.1-1.5,6.1-3.6,8.4l-0.9,1c-1.6,1.6-2.6,3.8-2.6,6v33c0,2.3,0.9,4.5,2.6,6.1
	c2.5,1.9,4,4.7,4.3,7.8c0.3,2.2,0.1,4.4,0.5,6.6c0.3,1.1,1.3,1.9,2.4,2.1c3.8,0.6,7.7,0.9,11.5,0.8c3.6,0.1,7.1-0.2,10.6-0.8
	c1.1-0.2,1.9-1.1,2.2-2.2c0.2-1-0.3-6,1.5-9.1c0.6-1.1,3.3-5.1,3.3-5.1s0.3-0.4,0.4-0.5c1.5-1.6,2.4-3.7,2.4-5.8V46.1H71.7z
	 M67.9,66.4c0.1,3.3-2.4,6.1-5.7,6.3H35.5c-3.3-0.2-5.8-3-5.7-6.3v-33c-0.1-3.3,2.4-6.1,5.7-6.3h26.6c3.3,0.2,5.8,3,5.7,6.3V66.4z"
	/>
</svg>
